<svg xmlns="http://www.w3.org/2000/svg" height="512pt" version="1.1" viewBox="0 -16 512.00139 512" width="512pt">
<g id="surface1">
<path d="M 256.996094 0 C 215.640625 0 181.996094 33.644531 181.996094 75 C 181.996094 116.351562 215.640625 149.996094 256.996094 149.996094 C 298.347656 149.996094 331.992188 116.351562 331.992188 75 C 331.992188 33.644531 298.347656 0 256.996094 0 Z M 256.996094 120 C 232.183594 120 211.996094 99.8125 211.996094 75 C 211.996094 50.1875 232.183594 30 256.996094 30 C 281.808594 30 301.992188 50.1875 301.992188 75 C 301.992188 99.8125 281.808594 120 256.996094 120 Z M 256.996094 120 " style=" stroke:none;fill-rule:nonzero;fill:rgb(0%,0%,0%);fill-opacity:1; fill: #1f79e2;" />
<path d="M 361.992188 269.996094 C 395.078125 269.996094 421.992188 243.078125 421.992188 209.996094 C 421.992188 176.914062 395.078125 149.996094 361.992188 149.996094 C 328.910156 149.996094 301.992188 176.914062 301.992188 209.996094 C 301.992188 243.078125 328.910156 269.996094 361.992188 269.996094 Z M 361.992188 179.996094 C 378.535156 179.996094 391.992188 193.453125 391.992188 209.996094 C 391.992188 226.539062 378.535156 239.996094 361.992188 239.996094 C 345.453125 239.996094 331.992188 226.539062 331.992188 209.996094 C 331.992188 193.453125 345.453125 179.996094 361.992188 179.996094 Z M 361.992188 179.996094 " style=" stroke:none;fill-rule:nonzero;fill:rgb(0%,0%,0%);fill-opacity:1; fill: #1f79e2;" />
<path d="M 441.074219 320.214844 L 365.019531 359.992188 L 359.421875 359.992188 C 361.085938 355.300781 361.992188 350.25 361.992188 344.992188 C 361.992188 320.179688 341.804688 299.996094 316.992188 299.996094 L 261.535156 299.996094 L 190.433594 252.59375 C 178.070312 244.351562 163.6875 239.996094 148.832031 239.996094 L 87.417969 239.996094 C 81.226562 222.539062 64.554688 209.996094 45 209.996094 L 15 209.996094 C 6.714844 209.996094 0 216.710938 0 224.996094 L 0 434.992188 C 0 443.277344 6.714844 449.992188 15 449.992188 L 45 449.992188 C 62.066406 449.992188 76.945312 440.441406 84.570312 426.398438 L 177.671875 472.097656 C 188.019531 477.261719 199.597656 479.992188 211.160156 479.992188 L 331.660156 479.992188 C 345.59375 479.992188 359.222656 476.121094 371.058594 468.808594 C 501.042969 388.691406 492.957031 393.765625 493.992188 392.992188 C 513.882812 378.074219 517.914062 349.894531 502.988281 329.996094 C 488.371094 310.507812 460.855469 306.265625 441.074219 320.214844 Z M 60 404.992188 C 60 413.261719 53.269531 419.992188 45 419.992188 L 30 419.992188 L 30 239.996094 L 45 239.996094 C 53.269531 239.996094 60 246.726562 60 254.996094 Z M 476.441406 368.644531 L 355.308594 443.277344 C 348.195312 447.671875 340.019531 449.992188 331.660156 449.992188 L 211.160156 449.992188 C 204.210938 449.992188 197.253906 448.351562 191.035156 445.242188 C 191.003906 445.226562 190.96875 445.210938 190.9375 445.191406 L 90 395.648438 L 90 269.996094 L 148.832031 269.996094 C 157.742188 269.996094 166.375 272.609375 173.789062 277.554688 L 248.675781 327.476562 C 251.136719 329.117188 254.03125 329.996094 256.992188 329.996094 L 316.992188 329.996094 C 325.261719 329.996094 331.992188 336.722656 331.992188 344.992188 C 331.992188 353.265625 325.261719 359.992188 316.992188 359.992188 L 196.996094 359.992188 C 188.710938 359.992188 181.996094 366.710938 181.996094 374.992188 C 181.996094 383.277344 188.710938 389.992188 196.996094 389.992188 L 368.707031 389.992188 C 371.125 389.992188 373.511719 389.40625 375.65625 388.285156 C 460.308594 343.933594 456.167969 346.371094 457.992188 345 C 464.609375 340.035156 474.027344 341.382812 478.988281 347.996094 C 483.84375 354.472656 482.683594 363.589844 476.441406 368.644531 Z M 476.441406 368.644531 " style=" stroke:none;fill-rule:nonzero;fill:rgb(0%,0%,0%);fill-opacity:1; fill: #1f79e2;" />
</g>
</svg>