<svg height="480pt" viewBox="-36 0 480 480.99047" width="480pt" xmlns="http://www.w3.org/2000/svg"><path d="m219.285156 429.457031 106.4375-106.4375 11.335938 11.335938-106.4375 106.4375zm0 0"/><path d="m243.738281 374.265625c-14.769531 0-26.796875-12.027344-26.796875-26.796875 0-14.773438 12.027344-26.800781 26.796875-26.800781 14.773438 0 26.796875 12.027343 26.796875 26.800781 0 14.769531-12.023437 26.796875-26.796875 26.796875zm0-37.5625c-5.933593 0-10.761719 4.828125-10.761719 10.761719s4.828126 10.765625 10.761719 10.765625c5.933594 0 10.765625-4.832031 10.765625-10.765625s-4.832031-10.761719-10.765625-10.761719zm0 0"/><path d="m312.609375 443.140625c-14.773437 0-26.796875-12.023437-26.796875-26.804687 0-14.773438 12.023438-26.796876 26.796875-26.796876 14.78125 0 26.804687 12.023438 26.804687 26.796876 0 14.78125-12.023437 26.804687-26.804687 26.804687zm0-37.570313c-5.933594 0-10.765625 4.832032-10.765625 10.765626 0 5.941406 4.832031 10.773437 10.765625 10.773437 5.941406 0 10.773437-4.832031 10.773437-10.773437 0-5.933594-4.832031-10.765626-10.773437-10.765626zm0 0"/><path d="m337.191406 272.570312h-144.300781c-2.125 0-4.164063-.847656-5.667969-2.351562l-21.699218-21.699219h-60.8125c-4.429688 0-8.015626-3.585937-8.015626-8.015625v-96.199218c0-4.425782 3.585938-8.015626 8.015626-8.015626h54.816406l19.398437-6.46875 21.980469-51.292968v-37.449219l-7.773438-31.109375c-.667968-2.664062.078126-5.488281 1.976563-7.476562 1.894531-1.996094 4.660156-2.886719 7.375-2.328126l40.082031 8.015626c2.816406.566406 5.117188 2.597656 6.027344 5.324218l8.015625 24.050782c.273437.816406.414063 1.671874.414063 2.535156v55.050781l55.125-6.890625c.84375-.113281 1.71875-.078125 2.566406.09375l40.082031 8.015625c3.5625.714844 6.199219 3.734375 6.429687 7.359375l8.015626 128.265625c.117187 1.902344-.449219 3.785156-1.589844 5.3125l-24.050782 32.0625c-1.511718 2.019531-3.890624 3.210937-6.410156 3.210937zm-140.980468-16.035156h136.972656l19.867187-26.496094-7.445312-119.167968-32.761719-6.550782-62.839844 7.855469c-2.261718.304688-4.582031-.421875-6.300781-1.945312-1.722656-1.519531-2.710937-3.710938-2.710937-6.007813v-62.832031l-6.136719-18.402344-23.09375-4.621093 4.9375 19.777343c.164062.636719.242187 1.292969.242187 1.945313v40.082031c0 1.085937-.21875 2.160156-.648437 3.160156l-24.050781 56.113281c-.898438 2.105469-2.65625 3.722657-4.828126 4.449219l-24.050781 8.015625c-.816406.273438-1.675781.410156-2.535156.410156h-48.097656v80.167969h56.113281c2.125 0 4.167969.84375 5.667969 2.347657zm0 0"/><path d="m104.710938 280.585938h-96.199219c-4.425781 0-8.015625-3.585938-8.015625-8.015626v-128.265624c0-4.425782 3.589844-8.015626 8.015625-8.015626h96.199219c4.425781 0 8.015624 3.589844 8.015624 8.015626v128.265624c0 4.429688-3.589843 8.015626-8.015624 8.015626zm-88.183594-16.03125h80.167968v-112.234376h-80.167968zm0 0"/><path d="m80.660156 236.496094c0 6.640625-5.382812 12.023437-12.023437 12.023437s-12.027344-5.382812-12.027344-12.023437 5.386719-12.027344 12.027344-12.027344 12.023437 5.386719 12.023437 12.027344zm0 0"/><path d="m314.597656 481h-67.046875c-52.238281 0-94.742187-42.503906-94.742187-94.742188 0-23.621093 8.75-46.246093 24.636718-63.726562l57.613282-63.371094c1.519531-1.667968 3.671875-2.625 5.933594-2.625h80.164062c2.261719 0 4.414062.957032 5.933594 2.625l57.613281 63.371094c15.882813 17.472656 24.636719 40.105469 24.636719 63.726562 0 52.238282-42.503906 94.742188-94.742188 94.742188zm-70.058594-208.429688-55.230468 60.75c-13.195313 14.511719-20.464844 33.316407-20.464844 52.9375 0 43.402344 35.308594 78.707032 78.707031 78.707032h67.046875c43.402344 0 78.707032-35.304688 78.707032-78.707032 0-19.621093-7.273438-38.425781-20.472657-52.9375l-55.222656-60.75zm0 0"/><path d="m249.007812 112.238281c-1.917968 0-3.789062-.6875-5.253906-1.960937-1.753906-1.523438-2.761718-3.730469-2.761718-6.054688v-56.117187c0-4.425781 3.585937-8.015625 8.015624-8.015625h40.082032c1.019531 0 2.03125.195312 2.976562.570312l40.082032 16.035156c2.316406.925782 4.070312 2.878907 4.746093 5.28125.671875 2.398438.1875 4.976563-1.308593 6.972657l-24.050782 32.066406c-1.273437 1.699219-3.167968 2.828125-5.273437 3.125l-56.117188 8.015625c-.378906.054688-.761719.082031-1.136719.082031zm8.015626-56.113281v38.855469l43.675781-6.238281 15.785156-21.042969-28.9375-11.574219zm0 0"/><path d="m273.308594 78.222656 8.023437-32.0625 15.550781 3.890625-8.027343 32.066407zm0 0"/></svg>