<svg xmlns="http://www.w3.org/2000/svg" width="42" height="37" viewBox="0 0 42 37">
  <metadata><?xpacket begin="﻿" id="W5M0MpCehiHzreSzNTczkc9d"?>
<x:xmpmeta xmlns:x="adobe:ns:meta/" x:xmptk="Adobe XMP Core 5.6-c140 79.160451, 2017/05/06-01:08:21        ">
   <rdf:RDF xmlns:rdf="http://www.w3.org/1999/02/22-rdf-syntax-ns#">
      <rdf:Description rdf:about=""/>
   </rdf:RDF>
</x:xmpmeta>
                                                                                                    
                                                                                                    
                                                                                                    
                                                                                                    
                                                                                                    
                                                                                                    
                                                                                                    
                                                                                                    
                                                                                                    
                                                                                                    
                                                                                                    
                                                                                                    
                                                                                                    
                                                                                                    
                                                                                                    
                                                                                                    
                                                                                                    
                                                                                                    
                                                                                                    
                                                                                                    
                           
<?xpacket end="w"?></metadata>
<defs>
    <style>
      .cls-1 {
        fill: #05203f;
        fill-rule: evenodd;
      }
    </style>
  </defs>
  <path id="Forma_1" data-name="Forma 1" class="cls-1" d="M5.742,19.147a0.812,0.812,0,1,0,.82.811A0.816,0.816,0,0,0,5.742,19.147ZM42,21.988a3.631,3.631,0,0,0-1.374-2.84A3.635,3.635,0,0,0,41.949,15.7a3.8,3.8,0,0,0-3.795-3.044H30.34l0.243-.722A10.258,10.258,0,0,0,27.623.822,3.486,3.486,0,0,0,22.1,2.263a0.8,0.8,0,0,0-.012.523c0.681,2.144.691,3.586,0.033,4.976-0.682,1.442-2.149,2.956-4.906,5.062a12.21,12.21,0,0,1-1.8,1.114A7.547,7.547,0,0,0,12.835,15.9H9.843V15.09a0.816,0.816,0,0,0-.82-0.812H0.82A0.816,0.816,0,0,0,0,15.09v21.1A0.816,0.816,0,0,0,.82,37h8.2a0.816,0.816,0,0,0,.82-0.811V33.754h4.6A13.072,13.072,0,0,0,23.1,37H33.386a3.669,3.669,0,0,0,3.691-3.652,3.6,3.6,0,0,0-.624-2.029h0.214a3.669,3.669,0,0,0,3.691-3.652,3.608,3.608,0,0,0-.786-2.248A3.654,3.654,0,0,0,42,21.988ZM8.2,35.377H1.641V15.9H8.2V35.377Zm30.1-11.361H30.433a0.811,0.811,0,1,0,0,1.623h6.234a2.029,2.029,0,1,1,0,4.058H30.433a0.811,0.811,0,1,0,0,1.623h2.953a2.029,2.029,0,1,1,0,4.057H23.1a11.423,11.423,0,0,1-7.779-3.027,0.825,0.825,0,0,0-.56-0.218H9.843V17.524h3.393a0.824,0.824,0,0,0,.661-0.33,5.8,5.8,0,0,1,2.3-1.828,13.771,13.771,0,0,0,2.023-1.257c5.616-4.292,6.9-6.921,5.525-11.517a1.836,1.836,0,0,1,2.864-.49,8.6,8.6,0,0,1,2.418,9.318l-0.416,1.235H27.562a0.811,0.811,0,1,0,0,1.623H38.154a2.149,2.149,0,0,1,2.175,1.682,2.036,2.036,0,0,1-2.022,2.375H30.433a0.811,0.811,0,1,0,0,1.623h7.875A2.029,2.029,0,1,1,38.308,24.016ZM5.742,22.393a0.816,0.816,0,0,0-.82.811V31.32a0.82,0.82,0,0,0,1.641,0V23.2A0.816,0.816,0,0,0,5.742,22.393Z"/>
</svg>
