<svg xmlns="http://www.w3.org/2000/svg" width="39" height="39" viewBox="0 0 39 39">
  <metadata><?xpacket begin="﻿" id="W5M0MpCehiHzreSzNTczkc9d"?>
<x:xmpmeta xmlns:x="adobe:ns:meta/" x:xmptk="Adobe XMP Core 5.6-c140 79.160451, 2017/05/06-01:08:21        ">
   <rdf:RDF xmlns:rdf="http://www.w3.org/1999/02/22-rdf-syntax-ns#">
      <rdf:Description rdf:about=""/>
   </rdf:RDF>
</x:xmpmeta>
                                                                                                    
                                                                                                    
                                                                                                    
                                                                                                    
                                                                                                    
                                                                                                    
                                                                                                    
                                                                                                    
                                                                                                    
                                                                                                    
                                                                                                    
                                                                                                    
                                                                                                    
                                                                                                    
                                                                                                    
                                                                                                    
                                                                                                    
                                                                                                    
                                                                                                    
                                                                                                    
                           
<?xpacket end="w"?></metadata>
<defs>
    <style>
      .cls-1 {
        fill: #05203f;
        fill-rule: evenodd;
      }
    </style>
  </defs>
  <path id="Forma_1" data-name="Forma 1" class="cls-1" d="M37.057,19.487l-1.769-.222a12.168,12.168,0,0,0-2.271-3.587l1.3-5.511a0.762,0.762,0,0,0-.741-0.937H33.407a5.248,5.248,0,0,0-4.871,3.352,11.978,11.978,0,0,0-1.666-.527,0.762,0.762,0,1,0-.351,1.483,10.548,10.548,0,0,1,5.032,2.8,0.759,0.759,0,0,0,.185.19,10.6,10.6,0,0,1,2.289,3.7,0.761,0.761,0,0,0,.621.5L36.868,21a0.7,0.7,0,0,1,.609.69v3.84a0.7,0.7,0,0,1-.609.69l-2.058.258a0.762,0.762,0,0,0-.632.528,10.568,10.568,0,0,1-3.355,4.989,0.762,0.762,0,0,0-.276.587v4.21a0.686,0.686,0,0,1-.685.685H25.442a0.686,0.686,0,0,1-.685-0.685v-1.6a0.762,0.762,0,0,0-.762-0.762H17.6a0.762,0.762,0,0,0-.762.762v1.6a0.686,0.686,0,0,1-.685.685H11.73a0.686,0.686,0,0,1-.685-0.685V33.818a0.762,0.762,0,0,0-.4-0.669,10.587,10.587,0,0,1,5.043-19.9h0.954a0.762,0.762,0,1,0,0-1.523H15.689A12.13,12.13,0,0,0,3.948,20.875H3.39a1.866,1.866,0,0,1,0-3.733,0.762,0.762,0,1,0,0-1.523,3.39,3.39,0,1,0,0,6.779H3.666A12.111,12.111,0,0,0,9.521,34.262v2.53A2.211,2.211,0,0,0,11.73,39h4.419a2.211,2.211,0,0,0,2.209-2.209V35.948h4.876v0.843A2.211,2.211,0,0,0,25.442,39H29.86a2.211,2.211,0,0,0,2.209-2.209V32.932a12.083,12.083,0,0,0,3.4-5l1.583-.2A2.222,2.222,0,0,0,39,25.529v-3.84A2.222,2.222,0,0,0,37.057,19.487Zm-5.32-5.02a12.143,12.143,0,0,0-1.817-1.23,3.719,3.719,0,0,1,2.671-2.39Zm-1.415,4.876a0.761,0.761,0,1,0,.223.539A0.768,0.768,0,0,0,30.322,19.342Zm-7.985-14.9a0.762,0.762,0,0,0-.762.762V8.226a0.762,0.762,0,0,0,1.524,0V5.205A0.762,0.762,0,0,0,22.337,4.443ZM22.875,1.9a0.761,0.761,0,1,0,.223.539A0.767,0.767,0,0,0,22.875,1.9ZM16.148,0a0.762,0.762,0,0,0-.762.762V2.057a0.762,0.762,0,1,0,1.524,0V0.762A0.762,0.762,0,0,0,16.148,0ZM8.679,23.839a0.762,0.762,0,1,0-1.523,0v0.04a0.762,0.762,0,0,0,.762.757h0a0.762,0.762,0,0,0,.757-0.767V23.839Zm3.372,5.993a7.06,7.06,0,0,1-2.91-3.486,0.762,0.762,0,1,0-1.423.545,8.592,8.592,0,0,0,3.541,4.242A0.762,0.762,0,1,0,12.051,29.833Zm4.1-26.173a3.2,3.2,0,1,0,3.2,3.2A3.2,3.2,0,0,0,16.148,3.66Zm0,4.875a1.676,1.676,0,1,1,1.676-1.676A1.678,1.678,0,0,1,16.148,8.535Zm9.6,7.613H25.061a3.2,3.2,0,1,0-5.448,0H15.844a0.762,0.762,0,0,0,0,1.523h9.9A0.762,0.762,0,0,0,25.746,16.148Zm-3.409,0a1.676,1.676,0,1,1,1.676-1.676A1.678,1.678,0,0,1,22.337,16.148Z"/>
</svg>
