<svg height="681pt" viewBox="-32 -21 681 681.24745" width="681pt" xmlns="http://www.w3.org/2000/svg" style="fill: #1f79e2;"><path d="m559.644531 637.253906h-505.78125c-30.769531 0-55.796875-25.027344-55.796875-55.800781v-303.527344c0-30.773437 25.027344-55.808593 55.796875-55.808593h136.917969c5.882812 0 10.640625 4.769531 10.640625 10.648437 0 5.875-4.757813 10.636719-10.640625 10.636719h-136.917969c-19.03125 0-34.511719 15.484375-34.511719 34.523437v303.527344c0 19.027344 15.480469 34.511719 34.511719 34.511719h505.78125c19.03125 0 34.515625-15.484375 34.515625-34.511719v-303.527344c0-19.03125-15.480468-34.523437-34.515625-34.523437h-146.449219c-5.878906 0-10.636718-4.761719-10.636718-10.636719 0-5.878906 4.757812-10.648437 10.636718-10.648437h146.449219c30.765625 0 55.800781 25.035156 55.800781 55.808593v303.527344c0 30.773437-25.027343 55.800781-55.800781 55.800781zm0 0"/><path d="m604.800781 360.496094h-596.089843c-5.886719 0-10.644532-4.761719-10.644532-10.644532 0-5.875 4.757813-10.640624 10.644532-10.640624h596.089843c5.886719 0 10.644531 4.765624 10.644531 10.640624 0 5.882813-4.757812 10.644532-10.644531 10.644532zm0 0"/><path d="m423.84375 296.632812h-255.46875c-5.878906 0-10.640625-4.765624-10.640625-10.648437 0-5.875 4.761719-10.648437 10.640625-10.648437h255.46875c5.886719 0 10.644531 4.773437 10.644531 10.648437 0 5.882813-4.757812 10.648437-10.644531 10.648437zm0 0"/><path d="m389.105469 296.632812h-175.347657c-3.253906 0-6.332031-1.496093-8.347656-4.050781-17.261718-21.847656-26.390625-48.054687-26.390625-75.789062 0-67.496094 54.921875-122.410157 122.414063-122.410157 67.492187 0 122.410156 54.914063 122.410156 122.410157 0 27.734375-9.128906 53.941406-26.390625 75.789062-2.019531 2.554688-5.097656 4.050781-8.347656 4.050781zm-170.03125-21.296874h164.714843c12.300782-17.199219 18.769532-37.332032 18.769532-58.542969 0-55.753907-45.363282-101.117188-101.125-101.117188-55.757813 0-101.125 45.363281-101.125 101.117188 0 21.210937 6.46875 41.34375 18.765625 58.542969zm0 0"/><path d="m296.109375 73.09375c-5.882813 0-10.640625-4.761719-10.640625-10.644531v-53.21875c0-5.882813 4.757812-10.644531 10.640625-10.644531s10.644531 4.761718 10.644531 10.644531v53.21875c0 5.882812-4.761718 10.644531-10.644531 10.644531zm0 0"/><path d="m397.132812 90.210938c-2.058593 0-4.144531-.59375-5.96875-1.828126-4.859374-3.304687-6.132812-9.929687-2.828124-14.792968l29.878906-44.046875c3.300781-4.863281 9.921875-6.128907 14.777344-2.828125 4.867187 3.300781 6.136718 9.925781 2.828124 14.789062l-29.875 44.042969c-2.058593 3.03125-5.40625 4.664063-8.8125 4.664063zm0 0"/><path d="m455.207031 177.628906c-4.96875 0-9.410156-3.492187-10.429687-8.550781-1.15625-5.765625 2.578125-11.378906 8.351562-12.535156l52.183594-10.460938c5.753906-1.136719 11.355469 2.566407 12.523438 8.335938 1.15625 5.765625-2.578126 11.378906-8.347657 12.535156l-52.179687 10.460937c-.707032.148438-1.410156.214844-2.101563.214844zm0 0"/><path d="m137.015625 177.628906c-.699219 0-1.390625-.066406-2.101563-.214844l-52.183593-10.460937c-5.765625-1.15625-9.496094-6.769531-8.34375-12.527344 1.160156-5.777343 6.753906-9.480469 12.523437-8.34375l52.183594 10.464844c5.765625 1.152344 9.496094 6.769531 8.34375 12.53125-1.015625 5.058594-5.449219 8.550781-10.421875 8.550781zm0 0"/><path d="m205.742188 90.210938c-3.410157 0-6.765626-1.628907-8.820313-4.667969l-29.878906-44.039063c-3.300781-4.871094-2.035157-11.488281 2.828125-14.792968 4.863281-3.308594 11.476562-2.035157 14.78125 2.832031l29.882812 44.042969c3.296875 4.867187 2.035156 11.488281-2.824218 14.792968-1.835938 1.238282-3.921876 1.832032-5.96875 1.832032zm0 0"/><path d="m317.402344 254.050781c-25.441406 0-46.125-20.6875-46.125-46.121093 0-25.441407 20.683594-46.128907 46.125-46.128907 5.882812 0 10.640625 4.765625 10.640625 10.644531 0 5.875-4.757813 10.644532-10.640625 10.644532-13.695313 0-24.839844 11.136718-24.839844 24.839844 0 13.6875 11.144531 24.835937 24.839844 24.835937 5.882812 0 10.640625 4.761719 10.640625 10.636719 0 5.886718-4.757813 10.648437-10.640625 10.648437zm0 0"/><path d="m306.753906 218.566406h-42.578125c-5.882812 0-10.640625-4.761718-10.640625-10.636718 0-5.882813 4.757813-10.648438 10.640625-10.648438h42.578125c5.882813 0 10.648438 4.765625 10.648438 10.648438 0 5.875-4.765625 10.636718-10.648438 10.636718zm0 0"/><path d="m434.488281 594.675781c-23.484375 0-42.578125-19.101562-42.578125-42.574219 0-23.480468 19.09375-42.582031 42.578125-42.582031s42.582031 19.101563 42.582031 42.582031c0 23.472657-19.097656 42.574219-42.582031 42.574219zm0-63.871093c-11.730469 0-21.292969 9.550781-21.292969 21.296874 0 11.734376 9.5625 21.285157 21.292969 21.285157 11.734375 0 21.289063-9.550781 21.289063-21.285157 0-11.746093-9.554688-21.296874-21.289063-21.296874zm0 0"/><path d="m530.289062 594.675781c-23.476562 0-42.574218-19.101562-42.574218-42.574219 0-23.480468 19.097656-42.582031 42.574218-42.582031 23.480469 0 42.578126 19.101563 42.578126 42.582031 0 23.472657-19.097657 42.574219-42.578126 42.574219zm0-63.871093c-11.738281 0-21.285156 9.550781-21.285156 21.296874 0 11.734376 9.546875 21.285157 21.285156 21.285157 11.734376 0 21.289063-9.550781 21.289063-21.285157 0-11.746093-9.554687-21.296874-21.289063-21.296874zm0 0"/></svg>