<?xml version="1.0" encoding="UTF-8"?><!DOCTYPE svg PUBLIC "-//W3C//DTD SVG 1.1//EN" "http://www.w3.org/Graphics/SVG/1.1/DTD/svg11.dtd"><svg xmlns="http://www.w3.org/2000/svg" xmlns:xlink="http://www.w3.org/1999/xlink"><defs>
    <style>
      .cls-1 {
        fill: #05203f;
        fill-rule: evenodd;
      }
    </style>
  
    <style>
      .cls-1 {
        fill: #05203f;
        fill-rule: evenodd;
      }
    </style>
  </defs><symbol id="icon-calc1" viewBox="0 0 480 480"><path d="m219.285156 429.457031 106.4375-106.4375 11.335938 11.335938-106.4375 106.4375zm0 0"/><path d="m243.738281 374.265625c-14.769531 0-26.796875-12.027344-26.796875-26.796875 0-14.773438 12.027344-26.800781 26.796875-26.800781 14.773438 0 26.796875 12.027343 26.796875 26.800781 0 14.769531-12.023437 26.796875-26.796875 26.796875zm0-37.5625c-5.933593 0-10.761719 4.828125-10.761719 10.761719s4.828126 10.765625 10.761719 10.765625c5.933594 0 10.765625-4.832031 10.765625-10.765625s-4.832031-10.761719-10.765625-10.761719zm0 0"/><path d="m312.609375 443.140625c-14.773437 0-26.796875-12.023437-26.796875-26.804687 0-14.773438 12.023438-26.796876 26.796875-26.796876 14.78125 0 26.804687 12.023438 26.804687 26.796876 0 14.78125-12.023437 26.804687-26.804687 26.804687zm0-37.570313c-5.933594 0-10.765625 4.832032-10.765625 10.765626 0 5.941406 4.832031 10.773437 10.765625 10.773437 5.941406 0 10.773437-4.832031 10.773437-10.773437 0-5.933594-4.832031-10.765626-10.773437-10.765626zm0 0"/><path d="m337.191406 272.570312h-144.300781c-2.125 0-4.164063-.847656-5.667969-2.351562l-21.699218-21.699219h-60.8125c-4.429688 0-8.015626-3.585937-8.015626-8.015625v-96.199218c0-4.425782 3.585938-8.015626 8.015626-8.015626h54.816406l19.398437-6.46875 21.980469-51.292968v-37.449219l-7.773438-31.109375c-.667968-2.664062.078126-5.488281 1.976563-7.476562 1.894531-1.996094 4.660156-2.886719 7.375-2.328126l40.082031 8.015626c2.816406.566406 5.117188 2.597656 6.027344 5.324218l8.015625 24.050782c.273437.816406.414063 1.671874.414063 2.535156v55.050781l55.125-6.890625c.84375-.113281 1.71875-.078125 2.566406.09375l40.082031 8.015625c3.5625.714844 6.199219 3.734375 6.429687 7.359375l8.015626 128.265625c.117187 1.902344-.449219 3.785156-1.589844 5.3125l-24.050782 32.0625c-1.511718 2.019531-3.890624 3.210937-6.410156 3.210937zm-140.980468-16.035156h136.972656l19.867187-26.496094-7.445312-119.167968-32.761719-6.550782-62.839844 7.855469c-2.261718.304688-4.582031-.421875-6.300781-1.945312-1.722656-1.519531-2.710937-3.710938-2.710937-6.007813v-62.832031l-6.136719-18.402344-23.09375-4.621093 4.9375 19.777343c.164062.636719.242187 1.292969.242187 1.945313v40.082031c0 1.085937-.21875 2.160156-.648437 3.160156l-24.050781 56.113281c-.898438 2.105469-2.65625 3.722657-4.828126 4.449219l-24.050781 8.015625c-.816406.273438-1.675781.410156-2.535156.410156h-48.097656v80.167969h56.113281c2.125 0 4.167969.84375 5.667969 2.347657zm0 0"/><path d="m104.710938 280.585938h-96.199219c-4.425781 0-8.015625-3.585938-8.015625-8.015626v-128.265624c0-4.425782 3.589844-8.015626 8.015625-8.015626h96.199219c4.425781 0 8.015624 3.589844 8.015624 8.015626v128.265624c0 4.429688-3.589843 8.015626-8.015624 8.015626zm-88.183594-16.03125h80.167968v-112.234376h-80.167968zm0 0"/><path d="m80.660156 236.496094c0 6.640625-5.382812 12.023437-12.023437 12.023437s-12.027344-5.382812-12.027344-12.023437 5.386719-12.027344 12.027344-12.027344 12.023437 5.386719 12.023437 12.027344zm0 0"/><path d="m314.597656 481h-67.046875c-52.238281 0-94.742187-42.503906-94.742187-94.742188 0-23.621093 8.75-46.246093 24.636718-63.726562l57.613282-63.371094c1.519531-1.667968 3.671875-2.625 5.933594-2.625h80.164062c2.261719 0 4.414062.957032 5.933594 2.625l57.613281 63.371094c15.882813 17.472656 24.636719 40.105469 24.636719 63.726562 0 52.238282-42.503906 94.742188-94.742188 94.742188zm-70.058594-208.429688-55.230468 60.75c-13.195313 14.511719-20.464844 33.316407-20.464844 52.9375 0 43.402344 35.308594 78.707032 78.707031 78.707032h67.046875c43.402344 0 78.707032-35.304688 78.707032-78.707032 0-19.621093-7.273438-38.425781-20.472657-52.9375l-55.222656-60.75zm0 0"/><path d="m249.007812 112.238281c-1.917968 0-3.789062-.6875-5.253906-1.960937-1.753906-1.523438-2.761718-3.730469-2.761718-6.054688v-56.117187c0-4.425781 3.585937-8.015625 8.015624-8.015625h40.082032c1.019531 0 2.03125.195312 2.976562.570312l40.082032 16.035156c2.316406.925782 4.070312 2.878907 4.746093 5.28125.671875 2.398438.1875 4.976563-1.308593 6.972657l-24.050782 32.066406c-1.273437 1.699219-3.167968 2.828125-5.273437 3.125l-56.117188 8.015625c-.378906.054688-.761719.082031-1.136719.082031zm8.015626-56.113281v38.855469l43.675781-6.238281 15.785156-21.042969-28.9375-11.574219zm0 0"/><path d="m273.308594 78.222656 8.023437-32.0625 15.550781 3.890625-8.027343 32.066407zm0 0"/></symbol><symbol id="icon-calc2" viewBox="0 0 682 682"><path d="m637.777344 266.386719c-6.359375-20.488281-25.757813-34.167969-47.203125-33.308594l-4.574219.1875c-13.417969.546875-26.039062 6.078125-35.492188 15.53125l-70.714843 69.972656c-1.675781-2.558593-3.597657-4.992187-5.785157-7.261719-9.296874-9.660156-22.320312-15.195312-35.726562-15.195312h-99.746094c-18.820312 0-37.171875-2.441406-54.554687-7.25-45.273438-12.53125-88.472657-3.484375-124.929688 26.160156-15.378906 12.511719-26.433593 26.164063-33.214843 35.8125-7.679688-5.339844-16.816407-8.140625-26.292969-7.980468-12.019531.207031-23.230469 5.082031-31.5625 13.742187l-64.472657 66.925781c-4.761718 4.941406-4.664062 12.796875.226563 17.621094l51.847656 51.140625c4.925781 4.855469 12.867188 4.804687 17.730469-.125 4.855469-4.929687 4.804688-12.863281-.125-17.726563l-43.027344-42.4375 55.875-58.007812c3.675782-3.816406 8.625-5.972656 13.925782-6.058594 5.351562-.097656 10.316406 1.894532 14.125 5.585938l99.691406 96.742187c3.800781 3.691407 5.9375 8.636719 6.011718 13.933594.074219 5.300781-1.921874 10.304687-5.621093 14.101563l-54.90625 56.335937-14.128907-13.457031c-5.015624-4.777344-12.949218-4.582032-17.726562.433594-4.769531 5.015624-4.574219 12.949218.441406 17.71875l23.097656 22.003906c2.429688 2.308594 5.539063 3.457031 8.644532 3.457031 3.265625 0 6.523437-1.269531 8.980468-3.785156l63.554688-65.210938c8.378906-8.59375 12.898438-19.941406 12.734375-31.941406-.078125-5.488281-1.140625-10.8125-3.085937-15.773437l22.386718-2.605469c10.386719-1.207031 20.953125-1.824219 31.410156-1.824219h151.769532c2.324218 0 4.675781-.097656 6.992187-.292969l14.542969-1.210937c14.742188-1.222656 28.949219-6.339844 41.09375-14.785156 5.960938-4.148438 11.367188-9.054688 16.070312-14.589844l102.269532-120.320313c10.929687-12.855469 14.464844-30.144531 9.46875-46.257812zm-28.570313 30.019531-102.273437 120.320312c-3.300782 3.882813-7.097656 7.328126-11.285156 10.242188-8.527344 5.933594-18.507813 9.523438-28.851563 10.386719l-14.550781 1.210937c-1.621094.136719-3.277344.207032-4.90625.207032h-151.769532c-11.421874 0-22.964843.667968-34.304687 1.984374l-36.25 4.21875-80.195313-77.328124c5.460938-8.09375 15.496094-21.140626 30.050782-32.972657 30.320312-24.652343 64.777344-31.871093 102.421875-21.453125 19.558593 5.414063 40.164062 8.15625 61.242187 8.15625h99.746094c6.628906 0 13.070312 2.742188 17.671875 7.515625 3.363281 3.492188 5.496094 7.773438 6.375 12.261719-.015625 1.132812.125 2.261719.417969 3.359375.332031 5.878906-1.429688 11.871094-5.34375 16.742187l-.386719.484376c-4.675781 5.828124-11.648437 9.175781-19.125 9.175781h-86.835937c-6.925782 0-12.535157 5.609375-12.535157 12.53125 0 6.925781 5.609375 12.539062 12.535157 12.539062h86.835937c15.121094 0 29.21875-6.765625 38.683594-18.566406l.386719-.480469c7.25-9.03125 10.84375-19.960937 10.878906-30.867187l80.34375-79.503907c5.039062-5.035156 11.726562-7.96875 18.839844-8.257812l4.578124-.183594c10.109376-.429687 19.238282 6.035156 22.230469 15.6875 2.441407 7.867188.710938 16.3125-4.625 22.589844zm0 0"/><path d="m99.679688 394.566406c-18.71875 0-33.945313 15.230469-33.945313 33.945313 0 18.722656 15.226563 33.953125 33.945313 33.953125s33.949218-15.230469 33.949218-33.953125c0-18.714844-15.230468-33.945313-33.949218-33.945313zm0 42.824219c-4.894532 0-8.878907-3.980469-8.878907-8.878906 0-4.890625 3.984375-8.871094 8.878907-8.871094 4.890624 0 8.875 3.980469 8.875 8.871094 0 4.898437-3.984376 8.878906-8.875 8.878906zm0 0"/><path d="m297.789062 372.765625-.644531.152344c-6.738281 1.582031-10.925781 8.332031-9.335937 15.070312 1.351562 5.773438 6.503906 9.671875 12.191406 9.671875.945312 0 1.914062-.113281 2.875-.339844l.648438-.148437c6.738281-1.582031 10.917968-8.332031 9.335937-15.070313-1.582031-6.738281-8.328125-10.910156-15.070313-9.335937zm0 0"/><path d="m98.066406 505.4375-.648437.152344c-6.738281 1.585937-10.917969 8.328125-9.335938 15.066406 1.355469 5.777344 6.503907 9.671875 12.191407 9.671875.953124 0 1.914062-.105469 2.882812-.332031l.644531-.148438c6.738281-1.582031 10.921875-8.332031 9.335938-15.070312-1.582031-6.742188-8.332031-10.917969-15.070313-9.339844zm0 0"/><path d="m366.890625 263.929688c73.15625 0 132.671875-59.515626 132.671875-132.671876s-59.515625-132.675781-132.671875-132.675781c-30.007813 0-58.3125 9.773438-81.855469 28.257813-5.378906 4.21875-10.46875 8.890625-15.132812 13.890625-6.976563 7.472656-13.089844 15.75-18.164063 24.589843-11.464843 19.980469-17.519531 42.785157-17.519531 65.9375 0 73.15625 59.515625 132.671876 132.671875 132.671876zm-93.40625-186.132813c4.117187-7.175781 9.074219-13.890625 14.742187-19.957031 3.785157-4.0625 7.921876-7.851563 12.285157-11.277344 19.09375-14.984375 42.046875-22.90625 66.378906-22.90625 59.328125 0 107.601563 48.265625 107.601563 107.601562 0 59.332032-48.273438 107.601563-107.601563 107.601563-59.332031 0-107.605469-48.269531-107.605469-107.601563 0-18.785156 4.910156-37.269531 14.199219-53.460937zm0 0"/><path d="m378.007812 174.164062c-5.054687 3.003907-11.621093 4.070313-16.074218 4.070313-8.453125 0-15.863282-9.960937-15.863282-21.3125 0-6.921875-5.613281-12.535156-12.535156-12.535156-6.925781 0-12.535156 5.613281-12.535156 12.535156 0 21.710937 13.226562 39.976563 31.03125 45.003906.40625 6.558594 5.835938 11.757813 12.496094 11.757813 6.839844 0 12.390625-5.480469 12.523437-12.292969 18.105469-4.699219 33.730469-18.179687 33.730469-41.738281 0-28.246094-28.84375-43.65625-43.65625-43.65625-.1875 0-18.589844-1.636719-18.589844-13.40625 0-18.074219 18.402344-18.582032 18.589844-18.582032 3.484375 0 7.722656 2.070313 11.0625 5.410157 1.605469 1.609375 1.777344 1.777343 1.777344 8.535156 0 6.921875 5.617187 12.507813 12.535156 12.507813 6.921875 0 12.539062-5.632813 12.539062-12.558594 0-8.011719 0-17.089844-9.121093-26.214844-5.484375-5.476562-12.054688-9.375-18.890625-11.320312-.382813-6.582032-5.820313-11.808594-12.5-11.808594-6.921875 0-12.535156 5.617187-12.535156 12.539062v.820313c-13.695313 5.089843-28.527344 17.253906-28.527344 40.671875 0 28.722656 29.855468 38.433594 43.570312 38.472656 3.765625.304688 18.671875 6.90625 18.671875 18.585938 0 6.875-2.371093 11.347656-7.699219 14.515624zm0 0"/></symbol><symbol id="icon-cancel" viewBox="0 0 64 64">
  <g>
    <path d="M28.941,31.786L0.613,60.114c-0.787,0.787-0.787,2.062,0,2.849c0.393,0.394,0.909,0.59,1.424,0.59   c0.516,0,1.031-0.196,1.424-0.59l28.541-28.541l28.541,28.541c0.394,0.394,0.909,0.59,1.424,0.59c0.515,0,1.031-0.196,1.424-0.59   c0.787-0.787,0.787-2.062,0-2.849L35.064,31.786L63.41,3.438c0.787-0.787,0.787-2.062,0-2.849c-0.787-0.786-2.062-0.786-2.848,0   L32.003,29.15L3.441,0.59c-0.787-0.786-2.061-0.786-2.848,0c-0.787,0.787-0.787,2.062,0,2.849L28.941,31.786z"/>
  </g>
</symbol><symbol id="icon-loan1" viewBox="0 0 492 492">
<g>
	<g>
		<path d="M286,1.4c-5.5,0-9.9,4.4-9.9,9.9v196.1c0,5.5,4.4,9.9,9.9,9.9h196.1c5.5,0,9.9-4.4,9.9-9.9
			c0-50.3-18.3-98.7-51.6-136.4C401.3,26.8,345,1.4,286,1.4z M295.9,197.5v-176c49.7,2.7,96.5,25.2,129.7,62.7
			c27.9,31.5,44.1,71.5,46.4,113.3H295.9z"/>
		<path d="M443.7,268.7c0-5.5-4.4-9.9-9.9-9.9h-202V56.7c0-5.5-4.4-9.9-9.9-9.9C99.5,46.8,0,146.3,0,268.7
			C0,391,99.5,490.6,221.9,490.6S443.7,391,443.7,268.7z M221.9,470.8c-111.4,0-202.1-90.7-202.1-202.1
			C19.8,160.6,105.1,72,212,66.8v201.8c0,5.5,4.4,9.9,9.9,9.9h201.8C418.5,385.4,330,470.8,221.9,470.8z"/>
	</g>
</g>
</symbol><symbol id="icon-loan2" viewBox="0 0 456 456">
<g>
	<g>
		<path d="M388.095,184h-8c-4.748,0.025-9.429,1.119-13.696,3.2l18.976-98.712l10.568-54.976c0.835-4.339-2.005-8.533-6.344-9.368
			C389.104,24.049,388.6,24,388.095,24h-192c-4.418,0-8,3.582-8,8c0,0.508,0.048,1.014,0.144,1.512l10.568,54.976l18.992,98.712
			c-4.27-2.082-8.954-3.176-13.704-3.2h-42.904c-4.479-0.007-8.91,0.933-13,2.76l-56.096,24.928V208c0-4.418-3.582-8-8-8h-48
			c-4.418,0-8,3.582-8,8v240c0,4.418,3.582,8,8,8h48c4.418,0,8-3.582,8-8v-8h194.744c46.489,0.128,91.097-18.349,123.88-51.312
			c6.024-5.988,9.4-14.138,9.376-22.632V216C420.095,198.327,405.769,184,388.095,184z M76.095,440h-32V216h32V440z M378.415,40
			l-7.12,36.96c-16.03-6.007-27.657-20.084-30.528-36.96H378.415z M205.775,40h37.648c-2.871,16.876-14.498,30.953-30.528,36.96
			L205.775,40z M215.927,92.8c23.521-7.689,40.502-28.249,43.608-52.8h65.12c3.106,24.551,20.087,45.111,43.608,52.8
			l-26.064,135.504c-2.834,2.372-6.408,3.68-10.104,3.696h-80c-3.696-0.015-7.27-1.323-10.104-3.696L215.927,92.8z M404.095,244.504
			c-19.245,18.274-43.675,30.142-69.936,33.976l-67.2,9.6l2.264,15.832l67.2-9.6c24.661-3.606,47.972-13.524,67.672-28.792v18.984
			c-19.245,18.274-43.675,30.142-69.936,33.976l-67.2,9.6l2.264,15.832l67.2-9.6c24.661-3.606,47.972-13.524,67.672-28.792v18.984
			c-19.245,18.274-43.675,30.142-69.936,33.976l-67.2,9.6l2.264,15.832l67.2-9.6c24.661-3.606,47.972-13.524,67.672-28.792v20.544
			c0.011,4.245-1.677,8.319-4.688,11.312c-29.79,29.952-70.324,46.74-112.568,46.624H92.095V229.2l62.608-27.824
			c2.041-0.912,4.252-1.381,6.488-1.376h42.904c8.837,0,16,7.163,16,16c0,17.673,14.327,32,32,32h80c17.673,0,32-14.327,32-32
			c0-8.837,7.163-16,16-16h8c8.837,0,16,7.163,16,16V244.504z"/>
	</g>
</g>
<g>
	<g>
		<path d="M292.095,144c-22.091,0-40,17.909-40,40c0.026,22.08,17.92,39.974,40,40c22.091,0,40-17.909,40-40
			S314.187,144,292.095,144z M292.095,208c-13.255,0-24-10.745-24-24s10.745-24,24-24s24,10.745,24,24S305.35,208,292.095,208z"/>
	</g>
</g>
<g>
	<g>
		<rect x="330.339" y="96.001" transform="matrix(0.2169 -0.9762 0.9762 0.2169 214.9101 475.913)" width="147.512" height="16"/>
	</g>
</g>
<g>
	<g>
		<path d="M228.095,0h-72c-4.418,0-8,3.581-8,8c0,0.622,0.073,1.243,0.216,1.848l40,168l15.56-3.704L166.223,16h61.872V0z"/>
	</g>
</g>
<g>
</g>
<g>
</g>
<g>
</g>
<g>
</g>
<g>
</g>
<g>
</g>
<g>
</g>
<g>
</g>
<g>
</g>
<g>
</g>
<g>
</g>
<g>
</g>
<g>
</g>
<g>
</g>
<g>
</g>
</symbol><symbol id="icon-project-title-icon1" viewBox="0 0 39 39">
  <metadata><?xpacket begin="﻿" id="W5M0MpCehiHzreSzNTczkc9d"?>
<x:xmpmeta xmlns:x="adobe:ns:meta/" x:xmptk="Adobe XMP Core 5.6-c140 79.160451, 2017/05/06-01:08:21        ">
   <rdf:rdf xmlns:rdf="http://www.w3.org/1999/02/22-rdf-syntax-ns#">
      <rdf:description rdf:about=""/>
   </rdf:rdf>
</x:xmpmeta>
                                                                                                    
                                                                                                    
                                                                                                    
                                                                                                    
                                                                                                    
                                                                                                    
                                                                                                    
                                                                                                    
                                                                                                    
                                                                                                    
                                                                                                    
                                                                                                    
                                                                                                    
                                                                                                    
                                                                                                    
                                                                                                    
                                                                                                    
                                                                                                    
                                                                                                    
                                                                                                    
                           
<?xpacket end="w"?></metadata>

  <path id="Forma_1" data-name="Forma 1" class="cls-1" d="M37.057,19.487l-1.769-.222a12.168,12.168,0,0,0-2.271-3.587l1.3-5.511a0.762,0.762,0,0,0-.741-0.937H33.407a5.248,5.248,0,0,0-4.871,3.352,11.978,11.978,0,0,0-1.666-.527,0.762,0.762,0,1,0-.351,1.483,10.548,10.548,0,0,1,5.032,2.8,0.759,0.759,0,0,0,.185.19,10.6,10.6,0,0,1,2.289,3.7,0.761,0.761,0,0,0,.621.5L36.868,21a0.7,0.7,0,0,1,.609.69v3.84a0.7,0.7,0,0,1-.609.69l-2.058.258a0.762,0.762,0,0,0-.632.528,10.568,10.568,0,0,1-3.355,4.989,0.762,0.762,0,0,0-.276.587v4.21a0.686,0.686,0,0,1-.685.685H25.442a0.686,0.686,0,0,1-.685-0.685v-1.6a0.762,0.762,0,0,0-.762-0.762H17.6a0.762,0.762,0,0,0-.762.762v1.6a0.686,0.686,0,0,1-.685.685H11.73a0.686,0.686,0,0,1-.685-0.685V33.818a0.762,0.762,0,0,0-.4-0.669,10.587,10.587,0,0,1,5.043-19.9h0.954a0.762,0.762,0,1,0,0-1.523H15.689A12.13,12.13,0,0,0,3.948,20.875H3.39a1.866,1.866,0,0,1,0-3.733,0.762,0.762,0,1,0,0-1.523,3.39,3.39,0,1,0,0,6.779H3.666A12.111,12.111,0,0,0,9.521,34.262v2.53A2.211,2.211,0,0,0,11.73,39h4.419a2.211,2.211,0,0,0,2.209-2.209V35.948h4.876v0.843A2.211,2.211,0,0,0,25.442,39H29.86a2.211,2.211,0,0,0,2.209-2.209V32.932a12.083,12.083,0,0,0,3.4-5l1.583-.2A2.222,2.222,0,0,0,39,25.529v-3.84A2.222,2.222,0,0,0,37.057,19.487Zm-5.32-5.02a12.143,12.143,0,0,0-1.817-1.23,3.719,3.719,0,0,1,2.671-2.39Zm-1.415,4.876a0.761,0.761,0,1,0,.223.539A0.768,0.768,0,0,0,30.322,19.342Zm-7.985-14.9a0.762,0.762,0,0,0-.762.762V8.226a0.762,0.762,0,0,0,1.524,0V5.205A0.762,0.762,0,0,0,22.337,4.443ZM22.875,1.9a0.761,0.761,0,1,0,.223.539A0.767,0.767,0,0,0,22.875,1.9ZM16.148,0a0.762,0.762,0,0,0-.762.762V2.057a0.762,0.762,0,1,0,1.524,0V0.762A0.762,0.762,0,0,0,16.148,0ZM8.679,23.839a0.762,0.762,0,1,0-1.523,0v0.04a0.762,0.762,0,0,0,.762.757h0a0.762,0.762,0,0,0,.757-0.767V23.839Zm3.372,5.993a7.06,7.06,0,0,1-2.91-3.486,0.762,0.762,0,1,0-1.423.545,8.592,8.592,0,0,0,3.541,4.242A0.762,0.762,0,1,0,12.051,29.833Zm4.1-26.173a3.2,3.2,0,1,0,3.2,3.2A3.2,3.2,0,0,0,16.148,3.66Zm0,4.875a1.676,1.676,0,1,1,1.676-1.676A1.678,1.678,0,0,1,16.148,8.535Zm9.6,7.613H25.061a3.2,3.2,0,1,0-5.448,0H15.844a0.762,0.762,0,0,0,0,1.523h9.9A0.762,0.762,0,0,0,25.746,16.148Zm-3.409,0a1.676,1.676,0,1,1,1.676-1.676A1.678,1.678,0,0,1,22.337,16.148Z"/>
</symbol><symbol id="icon-project-title-icon3" viewBox="0 0 42 37">
  <metadata><?xpacket begin="﻿" id="W5M0MpCehiHzreSzNTczkc9d"?>
<x:xmpmeta xmlns:x="adobe:ns:meta/" x:xmptk="Adobe XMP Core 5.6-c140 79.160451, 2017/05/06-01:08:21        ">
   <rdf:rdf xmlns:rdf="http://www.w3.org/1999/02/22-rdf-syntax-ns#">
      <rdf:description rdf:about=""/>
   </rdf:rdf>
</x:xmpmeta>
                                                                                                    
                                                                                                    
                                                                                                    
                                                                                                    
                                                                                                    
                                                                                                    
                                                                                                    
                                                                                                    
                                                                                                    
                                                                                                    
                                                                                                    
                                                                                                    
                                                                                                    
                                                                                                    
                                                                                                    
                                                                                                    
                                                                                                    
                                                                                                    
                                                                                                    
                                                                                                    
                           
<?xpacket end="w"?></metadata>

  <path id="Forma_1" data-name="Forma 1" class="cls-1" d="M5.742,19.147a0.812,0.812,0,1,0,.82.811A0.816,0.816,0,0,0,5.742,19.147ZM42,21.988a3.631,3.631,0,0,0-1.374-2.84A3.635,3.635,0,0,0,41.949,15.7a3.8,3.8,0,0,0-3.795-3.044H30.34l0.243-.722A10.258,10.258,0,0,0,27.623.822,3.486,3.486,0,0,0,22.1,2.263a0.8,0.8,0,0,0-.012.523c0.681,2.144.691,3.586,0.033,4.976-0.682,1.442-2.149,2.956-4.906,5.062a12.21,12.21,0,0,1-1.8,1.114A7.547,7.547,0,0,0,12.835,15.9H9.843V15.09a0.816,0.816,0,0,0-.82-0.812H0.82A0.816,0.816,0,0,0,0,15.09v21.1A0.816,0.816,0,0,0,.82,37h8.2a0.816,0.816,0,0,0,.82-0.811V33.754h4.6A13.072,13.072,0,0,0,23.1,37H33.386a3.669,3.669,0,0,0,3.691-3.652,3.6,3.6,0,0,0-.624-2.029h0.214a3.669,3.669,0,0,0,3.691-3.652,3.608,3.608,0,0,0-.786-2.248A3.654,3.654,0,0,0,42,21.988ZM8.2,35.377H1.641V15.9H8.2V35.377Zm30.1-11.361H30.433a0.811,0.811,0,1,0,0,1.623h6.234a2.029,2.029,0,1,1,0,4.058H30.433a0.811,0.811,0,1,0,0,1.623h2.953a2.029,2.029,0,1,1,0,4.057H23.1a11.423,11.423,0,0,1-7.779-3.027,0.825,0.825,0,0,0-.56-0.218H9.843V17.524h3.393a0.824,0.824,0,0,0,.661-0.33,5.8,5.8,0,0,1,2.3-1.828,13.771,13.771,0,0,0,2.023-1.257c5.616-4.292,6.9-6.921,5.525-11.517a1.836,1.836,0,0,1,2.864-.49,8.6,8.6,0,0,1,2.418,9.318l-0.416,1.235H27.562a0.811,0.811,0,1,0,0,1.623H38.154a2.149,2.149,0,0,1,2.175,1.682,2.036,2.036,0,0,1-2.022,2.375H30.433a0.811,0.811,0,1,0,0,1.623h7.875A2.029,2.029,0,1,1,38.308,24.016ZM5.742,22.393a0.816,0.816,0,0,0-.82.811V31.32a0.82,0.82,0,0,0,1.641,0V23.2A0.816,0.816,0,0,0,5.742,22.393Z"/>
</symbol></svg>