<svg height="480pt" viewBox="0 -40 480 480" width="480pt" xmlns="http://www.w3.org/2000/svg" style="fill: #1f79e2;"><path d="m472 352h-48.207031c5.292969-6.882812 8.175781-15.316406 8.207031-24h16c8.835938 0 16-7.164062 16-16v-40c0-4.417969-3.582031-8-8-8h-24c0-4.417969-3.582031-8-8-8h-80c-4.417969 0-8 3.582031-8 8v64c.03125 8.683594 2.914062 17.117188 8.207031 24h-48.207031v-24c0-4.417969-3.582031-8-8-8h-118.632812c3.402343-9.582031 12.464843-15.988281 22.632812-16h96v-16h-96c-12.640625.035156-24.511719 6.0625-32 16.246094-7.488281-10.183594-19.359375-16.210938-32-16.246094h-96v16h96c10.167969.011719 19.230469 6.417969 22.632812 16h-118.632812c-4.417969 0-8 3.582031-8 8v24h-16c-4.417969 0-8 3.582031-8 8v32c0 4.417969 3.582031 8 8 8h464c4.417969 0 8-3.582031 8-8v-32c0-4.417969-3.582031-8-8-8zm-24-72v32h-16v-32zm-96 48v-56h64v56c0 13.253906-10.746094 24-24 24h-16c-13.253906 0-24-10.746094-24-24zm-312 8h240v16h-240zm424 48h-448v-16h448zm0 0"/><path d="m390.078125 240h16c-.066406-1.585938.324219-3.152344 1.128906-4.519531 3.617188-7.21875 3.617188-15.71875 0-22.9375-1.503906-2.835938-1.503906-6.234375 0-9.070313 1.855469-3.535156 2.785157-7.480468 2.714844-11.472656h-16c.066406 1.589844-.324219 3.164062-1.128906 4.535156-3.621094 7.21875-3.621094 15.726563 0 22.945313 1.503906 2.832031 1.503906 6.222656 0 9.054687-1.855469 3.535156-2.785157 7.476563-2.714844 11.464844zm0 0"/><path d="m358.078125 240h16c-.066406-1.585938.324219-3.152344 1.128906-4.519531 3.617188-7.21875 3.617188-15.71875 0-22.9375-1.503906-2.835938-1.503906-6.234375 0-9.070313 1.855469-3.535156 2.785157-7.480468 2.714844-11.472656h-16c.066406 1.589844-.324219 3.164062-1.128906 4.535156-3.621094 7.21875-3.621094 15.726563 0 22.945313 1.503906 2.832031 1.503906 6.222656 0 9.054687-1.855469 3.535156-2.785157 7.476563-2.714844 11.464844zm0 0"/><path d="m120 179.625v28.375c0 22.089844 17.910156 40 40 40s40-17.910156 40-40v-28.375c26.371094-17.621094 38.105469-50.417969 28.898438-80.765625-9.203126-30.351563-37.183594-51.101563-68.898438-51.101563s-59.695312 20.75-68.898438 51.101563c-9.207031 30.347656 2.527344 63.144531 28.898438 80.765625zm21.601562 9.976562c2.496094.636719 5.023438 1.144532 7.574219 1.519532 1.023438.152344 2.039063.269531 3.070313.382812 1.898437.199219 3.800781.320313 5.714844.375.695312 0 1.382812.136719 2.078124.136719.695313 0 1.394532-.121094 2.089844-.136719 1.902344-.054687 3.800782-.175781 5.695313-.375 1.03125-.113281 2.0625-.230468 3.097656-.390625 2.53125-.367187 5.039063-.867187 7.519531-1.503906.46875-.121094.917969-.289063 1.382813-.425781 1.414062-.398438 2.832031-.800782 4.214843-1.289063v12.105469h-48.039062v-12.121094c1.414062.503906 2.863281.914063 4.3125 1.320313.414062.121093.824219.273437 1.289062.402343zm18.398438 42.398438c-10.132812-.042969-19.148438-6.445312-22.527344-16h45.054688c-3.378906 9.554688-12.394532 15.957031-22.527344 16zm0-168c25.316406.046875 47.453125 17.078125 53.992188 41.535156 6.539062 24.457032-4.144532 50.257813-26.054688 62.9375-12.867188 7.3125-28.085938 9.300782-42.402344 5.535156-4.742187-1.234374-9.289062-3.117187-13.511718-5.601562-21.929688-12.660156-32.625-38.472656-26.070313-62.9375 6.554687-24.460938 28.722656-41.46875 54.046875-41.46875zm0 0"/><path d="m144 136c2.125 0 4.160156-.839844 5.664062-2.34375l10.335938-10.34375 10.351562 10.351562c3.125 3.121094 8.1875 3.121094 11.3125 0l16-16-11.3125-11.328124-10.351562 10.351562-10.398438-10.351562c-1.488281-1.484376-3.5-2.324219-5.601562-2.335938-2.121094 0-4.15625.84375-5.65625 2.34375l-10.34375 10.335938-10.320312-10.335938-11.328126 11.3125 16 16c1.5 1.5 3.53125 2.339844 5.648438 2.34375zm0 0"/><path d="m152 0h16v32h-16zm0 0"/><path d="m69.496094 40.808594 11.3125-11.316406 22.628906 22.628906-11.316406 11.3125zm0 0"/><path d="m40 112h32v16h-32zm0 0"/><path d="m69.492188 199.1875 22.625-22.625 11.316406 11.3125-22.628906 22.628906zm0 0"/><path d="m216.574219 187.886719 11.3125-11.316407 22.625 22.628907-11.3125 11.3125zm0 0"/><path d="m248 112h32v16h-32zm0 0"/><path d="m216.578125 52.121094 22.625-22.628906 11.316406 11.3125-22.628906 22.628906zm0 0"/></svg>