<?xml version="1.0" encoding="iso-8859-1"?>
<!-- Generator: Adobe Illustrator 19.0.0, SVG Export Plug-In . SVG Version: 6.00 Build 0)  -->
<svg version="1.1" id="Capa_1" xmlns="http://www.w3.org/2000/svg" xmlns:xlink="http://www.w3.org/1999/xlink" x="0px" y="0px"
	 viewBox="0 0 512.001 512.001" style="enable-background:new 0 0 512.001 512.001; fill: #1f79e2;" xml:space="preserve">
<g>
	<g>
		<path d="M256.001,136.915c-56.256,0-102.023,45.767-102.023,102.023c0,56.256,45.767,102.023,102.023,102.023
			s102.023-45.767,102.023-102.023C358.024,182.682,312.256,136.915,256.001,136.915z M326.099,196.398h-26.174
			c-1.95-9.605-4.566-18.506-7.804-26.346c-0.862-2.088-1.765-4.082-2.702-5.985C304.668,170.899,317.473,182.235,326.099,196.398z
			 M238.368,177.688c5.212-12.616,12.134-20.769,17.633-20.769c5.499,0,12.421,8.152,17.632,20.769
			c2.32,5.619,4.271,11.92,5.839,18.709h-46.944C234.098,189.608,236.047,183.309,238.368,177.688z M177.156,261.475
			c-2.052-7.166-3.174-14.72-3.174-22.537c0-7.816,1.122-15.37,3.174-22.537h31.938c-0.724,7.313-1.104,14.86-1.104,22.537
			c0,7.677,0.381,15.224,1.104,22.537H177.156z M185.902,281.48h26.174c1.95,9.605,4.566,18.506,7.804,26.346
			c0.862,2.088,1.764,4.082,2.702,5.984C207.333,306.978,194.528,295.642,185.902,281.48z M219.879,170.052
			c-3.238,7.84-5.853,16.741-7.804,26.346h-26.174c8.626-14.162,21.432-25.499,36.679-32.331
			C221.644,165.97,220.742,167.963,219.879,170.052z M273.634,300.188c-5.212,12.617-12.134,20.769-17.633,20.769
			c-5.499,0-12.421-8.152-17.632-20.769c-2.32-5.619-4.271-11.92-5.839-18.708h46.944
			C277.904,288.269,275.954,294.569,273.634,300.188z M282.804,261.475h-53.608c-0.787-7.247-1.201-14.803-1.201-22.537
			s0.415-15.29,1.201-22.537h53.609c0.787,7.247,1.201,14.802,1.201,22.537C284.006,246.672,283.591,254.229,282.804,261.475z
			 M289.42,313.81c0.937-1.903,1.839-3.897,2.702-5.984c3.238-7.84,5.853-16.741,7.804-26.346h26.173
			C317.472,295.642,304.668,306.978,289.42,313.81z M302.906,261.476c0.724-7.313,1.104-14.86,1.104-22.537
			c0.001-7.677-0.38-15.224-1.104-22.537h31.938c2.051,7.166,3.174,14.72,3.174,22.537s-1.122,15.37-3.174,22.537H302.906z"/>
	</g>
</g>
<g>
	<g>
		<path d="M359.093,368.275c-1.859-1.86-4.44-2.932-7.071-2.932s-5.211,1.07-7.072,2.932c-1.86,1.87-2.931,4.44-2.931,7.082
			c0,2.631,1.069,5.211,2.931,7.062c1.86,1.869,4.441,2.941,7.072,2.941c2.631,0,5.211-1.07,7.071-2.941
			c1.86-1.859,2.932-4.431,2.932-7.062C362.025,372.715,360.954,370.145,359.093,368.275z"/>
	</g>
</g>
<g>
	<g>
		<path d="M309.013,365.349H159.979c-5.523,0-10.002,4.479-10.002,10.002s4.479,10.002,10.002,10.002h149.034
			c5.523,0,10.002-4.479,10.002-10.002S314.536,365.349,309.013,365.349z"/>
	</g>
</g>
<g>
	<g>
		<path d="M294.509,408.977h-77.017c-5.523,0-10.002,4.479-10.002,10.002s4.479,10.002,10.002,10.002h77.017
			c5.523,0,10.002-4.479,10.002-10.002S300.033,408.977,294.509,408.977z"/>
	</g>
</g>
<g>
	<g>
		<path d="M420.038,234.42c5.523,0,10.002-4.478,10.002-10.002v-120.51c0-20.331-12.201-37.855-29.66-45.665V37.7
			c0-11.346-5.034-21.975-13.812-29.163c-8.778-7.188-20.19-10.025-31.313-7.791L89.991,54.093c-0.001,0-0.002,0-0.003,0.001
			c-0.051,0.01-0.1,0.024-0.151,0.035c-0.197,0.043-0.376,0.089-0.54,0.139c-4.227,1.168-7.336,5.032-7.336,9.631v438.099
			c0,5.523,4.479,10.002,10.002,10.002h288.065c27.576,0,50.011-22.435,50.011-50.011V317.013c0-5.523-4.479-10.002-10.002-10.002
			s-10.002,4.479-10.002,10.002v144.976c0,16.546-13.461,30.007-30.007,30.007H101.966V73.901h278.063
			c16.546,0,30.007,13.461,30.007,30.007v120.51C410.035,229.942,414.514,234.42,420.038,234.42z M380.375,53.905
			c-0.116-0.001-0.23-0.009-0.347-0.009H192.431L359.2,20.358c5.22-1.048,10.575,0.282,14.693,3.656
			c4.119,3.374,6.481,8.361,6.481,13.686V53.905z"/>
	</g>
</g>
<g>
	<g>
		<path d="M427.108,264.4c-1.859-1.859-4.44-2.921-7.071-2.921c-2.631,0-5.211,1.061-7.072,2.921
			c-1.86,1.87-2.931,4.441-2.931,7.082c0,2.631,1.069,5.211,2.931,7.072c1.861,1.86,4.441,2.931,7.072,2.931
			c2.631,0,5.211-1.069,7.071-2.931c1.86-1.86,2.932-4.441,2.932-7.072C430.04,268.841,428.97,266.26,427.108,264.4z"/>
	</g>
</g>
<g>
</g>
<g>
</g>
<g>
</g>
<g>
</g>
<g>
</g>
<g>
</g>
<g>
</g>
<g>
</g>
<g>
</g>
<g>
</g>
<g>
</g>
<g>
</g>
<g>
</g>
<g>
</g>
<g>
</g>
</svg>
