<svg style="fill: #758293;" height="511pt" viewBox="1 -4 511.99998 511" width="511pt" xmlns="http://www.w3.org/2000/svg"><path d="m469.554688 288.945312v-49.480468c0-5.546875-4.5-10.042969-10.046876-10.042969h-62.761718v-141.132813c0-5.546874-4.496094-10.042968-10.042969-10.042968h-77.640625c-5.546875 0-10.042969 4.496094-10.042969 10.042968v141.132813h-88.621093v-141.132813c0-5.546874-4.496094-10.042968-10.042969-10.042968h-77.644531c-5.542969 0-10.042969 4.496094-10.042969 10.042968v141.132813h-57.128907c-5.546874 0-10.046874 4.496094-10.046874 10.042969v91.925781h-35.230469c-5.546875 0-10.042969 4.496094-10.042969 10.042969v80.292968c-.140625.671876-.21875 1.367188-.21875 2.082032s.078125 1.410156.21875 2.082031v68.21875c0 5.546875 4.496094 10.042969 10.042969 10.042969h491.695312c5.546875 0 10.042969-4.496094 10.042969-10.042969v-152.675781c0-5.546875-4.496094-10.042969-10.042969-10.042969h-32.402343zm-150.449219-190.613281h57.554687v33.796875h-57.554687zm0 54.261719h57.554687v76.828125h-57.554687zm-186.351563-54.261719h57.558594v33.796875h-57.558594zm0 54.261719h57.558594v76.828125h-57.558594zm-67.171875 149.621094h151.265625c5.546875 0 10.042969-4.496094 10.042969-10.042969s-4.496094-10.042969-10.042969-10.042969h-151.265625v-32.621094h383.882813v32.773438h-153.527344c-5.542969 0-10.042969 4.5-10.042969 10.046875s4.5 10.042969 10.042969 10.042969h153.527344v27.707031h-383.882813zm426.332031 181.851562h-471.609374v-50.214844h58.070312v20.671876c0 5.546874 4.496094 10.042968 10.042969 10.042968h68.585937c5.546875 0 10.046875-4.496094 10.046875-10.042968v-20.671876h44.71875v20.671876c0 5.546874 4.5 10.042968 10.046875 10.042968h68.585938c5.546875 0 10.042968-4.496094 10.042968-10.042968v-20.671876h44.722657v20.671876c0 5.546874 4.5 10.042968 10.042969 10.042968h68.589843c5.546875 0 10.042969-4.496094 10.042969-10.042968v-20.671876h58.066406v50.214844zm-344.953124-58.175781v18.589844h-48.5v-48.5h48.5zm133.398437 0v18.589844h-48.5v-48.5h48.5zm84.898437 18.589844v-48.5h48.5v48.5zm126.65625-30.714844h-58.070312v-27.828125c0-5.546875-4.496094-10.046875-10.042969-10.046875h-68.585937c-5.546875 0-10.046875 4.5-10.046875 10.046875v27.828125h-44.71875v-27.828125c0-5.546875-4.5-10.046875-10.042969-10.046875h-68.589844c-5.546875 0-10.042968 4.5-10.042968 10.046875v27.828125h-44.722657v-27.828125c0-5.546875-4.496093-10.046875-10.042969-10.046875h-68.589843c-5.546875 0-10.042969 4.5-10.042969 10.046875v27.828125h-58.070312v-62.289063h471.609374zm0 0"/><path d="m155.273438 27.496094c-5.179688 4.125-12.273438 9.777344-12.273438 19.128906 0 7.488281 3.753906 12.933594 7.816406 16.632812 4.367188 3.976563 11.359375 2.382813 13.546875-3.105468l1.28125-3.132813c1.253907-3.058593.660157-6.621093-1.660156-8.976562-.316406-.320313-.566406-.625-.71875-.894531.960937-1.101563 3.140625-2.839844 4.527344-3.945313 5.179687-4.128906 12.273437-9.78125 12.273437-19.128906 0-15.382813-15.839844-22.140625-17.644531-22.859375-5.148437-2.050782-10.996094.460937-13.046875 5.613281-2.054688 5.152344.460938 10.996094 5.613281 13.046875 1.578125.628906 4.136719 2.457031 4.820313 3.667969-.960938 1.101562-3.144532 2.84375-4.535156 3.953125zm0 0"/><path d="m341.625 27.496094c-5.179688 4.125-12.273438 9.78125-12.273438 19.128906 0 7.488281 3.753907 12.933594 7.8125 16.632812 4.371094 3.976563 11.359376 2.382813 13.546876-3.105468l1.285156-3.132813c1.25-3.058593.65625-6.621093-1.664063-8.972656-.3125-.324219-.5625-.628906-.71875-.894531.960938-1.105469 3.140625-2.84375 4.527344-3.949219 5.179687-4.125 12.273437-9.78125 12.273437-19.128906 0-15.382813-15.839843-22.140625-17.644531-22.859375-5.148437-2.050782-10.992187.460937-13.046875 5.613281-2.054687 5.152344.460938 10.996094 5.613282 13.046875 1.578124.628906 4.136718 2.457031 4.820312 3.667969-.957031 1.101562-3.144531 2.84375-4.53125 3.953125zm0 0"/><path d="m265.359375 288.253906c-2.082031-5.144531-7.941406-7.625-13.078125-5.546875-5.140625 2.082031-7.625 7.933594-5.542969 13.078125l.121094.308594c1.582031 3.90625 5.34375 6.277344 9.316406 6.277344 1.253907 0 2.527344-.234375 3.761719-.734375 5.140625-2.078125 7.625-7.933594 5.542969-13.074219zm0 0"/></svg>